<svg width="245" height="189" xmlns="http://www.w3.org/2000/svg" xmlns:xlink="http://www.w3.org/1999/xlink" overflow="hidden"><defs><clipPath id="clip0"><rect x="517" y="223" width="245" height="189"/></clipPath></defs><g clip-path="url(#clip0)" transform="translate(-517 -223)"><path d="M518 224C557.862 237.86 597.511 252.359 637.467 265.939 638.88 266.485 640.28 266.485 641.693 265.939 681.582 252.293 721.204 237.913 761 224 746.882 246.495 732.63 268.911 718.205 291.206 711.539 288.341 704.673 285.956 697.954 283.21 701.846 276.361 706.033 269.671 709.979 262.847 697.127 269.311 684.048 275.321 671.29 281.971 680.209 285.369 689.141 288.701 697.994 292.286 702.926 294.298 708.219 298.176 708.552 303.96 709.339 310.384 704.953 315.634 701.846 320.778 682.622 350.843 663.504 380.988 644.186 411 644.293 403.084 643.386 395.088 644.319 387.225 651.919 363.117 659.424 338.983 666.344 314.675 667.704 311.063 663.664 309.131 661.064 307.865 653.732 304.627 646.866 300.335 639.36 297.563 631.748 300.855 624.442 304.84 616.976 308.451 614.669 309.517 611.416 311.623 612.736 314.635 619.602 338.956 627.188 363.077 634.734 387.199 635.574 395.075 634.774 403.071 634.814 411 615.803 381.255 596.831 351.47 577.847 321.711 574.54 316.234 569.741 310.637 570.568 303.8 571.008 298.056 576.274 294.245 581.206 292.246 589.979 288.674 598.885 285.409 607.723 281.958 594.992 275.334 581.966 269.271 569.128 262.861 573.061 269.684 577.247 276.361 581.126 283.224 574.367 285.916 567.528 288.408 560.795 291.167 546.424 268.844 532.198 246.415 518 224Z" fill-rule="evenodd"/></g></svg>