<?xml version="1.0" encoding="iso-8859-1"?>
<!-- Uploaded to: SVG Repo, www.svgrepo.com, Generator: SVG Repo Mixer Tools -->
<svg height="800px" width="800px" version="1.1" id="Capa_1" xmlns="http://www.w3.org/2000/svg" xmlns:xlink="http://www.w3.org/1999/xlink" 
	 viewBox="0 0 16.719 16.719" xml:space="preserve">
<g>
	<g>
		<path style="fill:#030104;" d="M13.616,2.457H2.374H1.9c-1.05,0-1.9,0.851-1.9,1.9v0.388v6.334v3.183h4.465h9.879h0.476
			c1.049,0,1.899-0.851,1.899-1.9v-0.387V3.369V2.457H13.616z M5.259,5.733v5.99v0.233c0,0.631-0.511,1.142-1.142,1.142H3.833H3.761
			H1.078v-1.912V5.194V4.962c0-0.631,0.511-1.142,1.142-1.142h0.285h0.071h2.683V5.733z M10.333,5.733v5.99v0.233
			c0,0.631-0.511,1.142-1.142,1.142H8.906H8.835H6.152v-1.912V9.999c0.448,0.687,1.244,1.12,2.378,1.12
			c0.652,0,1.153-0.12,1.375-0.231L9.722,9.942c-0.239,0.096-0.645,0.176-1.01,0.176c-1.082,0-1.718-0.677-1.718-1.75
			c0-1.192,0.747-1.773,1.709-1.773c0.429,0,0.771,0.095,1.018,0.199l0.246-0.962C9.752,5.721,9.276,5.594,8.648,5.594
			c-1.063,0-1.986,0.439-2.498,1.253V5.194V4.962c0-0.631,0.511-1.142,1.141-1.142h0.286h0.071h2.683v1.913H10.333z M15.544,5.733
			v5.99v0.233c0,0.631-0.511,1.142-1.143,1.142h-0.284h-0.071h-2.683v-1.912v-0.168c0.271,0.039,0.708,0.077,1.293,0.077
			c1.065,0,1.717-0.175,2.106-0.484c0.334-0.271,0.557-0.652,0.557-1.138c0-0.691-0.453-1.153-1.065-1.32V8.137
			c0.604-0.223,0.883-0.667,0.883-1.145c0-0.485-0.271-0.851-0.644-1.05c-0.391-0.23-0.844-0.302-1.583-0.302
			c-0.594,0-1.224,0.046-1.547,0.108V5.194V4.962c0-0.631,0.511-1.142,1.141-1.142h0.286h0.07h2.684
			C15.544,3.82,15.544,5.733,15.544,5.733z M12.958,8.67c0.604,0,1.089,0.215,1.089,0.756c0,0.563-0.484,0.771-1.033,0.771
			c-0.207,0-0.35,0-0.469-0.016V8.67H12.958z M12.545,7.802V6.553c0.103-0.016,0.254-0.032,0.517-0.032
			c0.549,0,0.858,0.214,0.858,0.62c0,0.398-0.342,0.66-0.979,0.66L12.545,7.802L12.545,7.802z"/>
		<path style="fill:#030104;" d="M1.718,10.021l-0.135,0.978c0.239,0.08,0.604,0.128,0.883,0.128c1.177,0,1.908-0.533,1.908-2.06
			V5.679H3.165V9.05c0,0.836-0.318,1.066-0.827,1.066C2.1,10.117,1.885,10.077,1.718,10.021z"/>
	</g>
</g>
</svg>